<svg xmlns="http://www.w3.org/2000/svg" width="156" height="32" viewBox="0 0 214 44"><path id="Logo" d="M183.294 17.854c0-5.533 4.01-8.023 8.156-8.023h5.807v6.64h-3.8a2.039 2.039 0 00-2.144 2.284v15.426h-8.018V17.854zm-20.053 4.151c0 3.528 2.282 5.948 5.461 5.948s5.394-2.42 5.394-5.948-2.212-5.948-5.394-5.948-5.461 2.421-5.461 5.948zm-7.605 0c0-7.332 5.806-12.659 13.066-12.659 7.193 0 13 5.327 13 12.659s-5.738 12.66-13 12.66c-7.328 0-13.066-5.328-13.066-12.66zM144.71 9.831v6.986h-2.073c-2.9 0-4.769 2.074-4.769 5.326 0 3.39 1.935 5.4 5.32 5.4h2.912V.007h8.018v34.174h-11.549c-7.263 0-12.725-4.912-12.725-12.176a11.82 11.82 0 0112.1-12.174h2.766zm54-1.8c0-5.533 4.01-8.025 8.159-8.025h7.122v6.435h-4.978a2.008 2.008 0 00-2.144 2.282v1.246h7.122v6.5h-7.121v17.71h-8.159V8.032zm-70.594 26.15h-7.744V19.238a2.332 2.332 0 00-2.488-2.628h-4.079v17.571h-7.744V9.831h13.551c4.494 0 8.5 2.49 8.5 8.369v15.981zM7.673 23.32c.276 2.832 2.7 4.495 5.531 4.495a7.906 7.906 0 005.324-1.937l4.148 5.742S19.5 34.733 13.2 34.733C6.013 34.733 0 29.614 0 22.005 0 14.464 5.805 9.346 13 9.346c7.329 0 12.722 4.774 12.722 12.312v1.662H7.673zm10.648-2.561a5.066 5.066 0 00-5.255-4.98 5.278 5.278 0 00-5.393 4.98h10.648zM62.5 34.181v-6.986h2.074c2.9 0 4.771-2.077 4.771-5.328 0-3.388-1.936-5.4-5.325-5.4h-2.9V44H53.1V9.831h11.545c7.26 0 12.722 4.912 12.722 12.174a11.821 11.821 0 01-12.1 12.176H62.5zm-25.652 0v-6.986h2.075c2.9 0 4.77-2.077 4.77-5.328 0-3.388-1.935-5.4-5.324-5.4h-2.9V44h-8.021V9.831h11.545c7.26 0 12.723 4.912 12.723 12.174a11.821 11.821 0 01-12.1 12.176H36.85zM86.424 23.32c.277 2.832 2.7 4.495 5.532 4.495a7.906 7.906 0 005.324-1.937l4.148 5.742s-3.18 3.113-9.472 3.113c-7.191 0-13.206-5.119-13.206-12.728 0-7.541 5.808-12.659 13-12.659 7.329 0 12.722 4.774 12.722 12.312v1.662H86.424zm10.648-2.561a5.064 5.064 0 00-5.254-4.98 5.279 5.279 0 00-5.394 4.98h10.648z" fill="#0035ad" fill-rule="evenodd"/></svg>