<?xml version="1.0" standalone="no"?>
<!DOCTYPE svg PUBLIC "-//W3C//DTD SVG 20010904//EN"
 "http://www.w3.org/TR/2001/REC-SVG-20010904/DTD/svg10.dtd">
<svg version="1.0" xmlns="http://www.w3.org/2000/svg"
 width="938.000000pt" height="937.000000pt" viewBox="0 0 938.000000 937.000000"
 preserveAspectRatio="xMidYMid meet">

<g transform="translate(0.000000,937.000000) scale(0.100000,-0.100000)"
fill="#000000" stroke="none">
<path d="M1523 6130 c-39 -23 -47 -39 -63 -114 -7 -37 -21 -68 -36 -83 -13
-13 -24 -26 -24 -28 0 -3 18 -16 41 -30 22 -15 39 -30 37 -34 -6 -15 -132
-117 -243 -196 -60 -43 -120 -87 -132 -98 -44 -39 -17 -105 29 -75 13 8 50 30
83 48 33 19 94 53 135 76 76 42 97 47 80 16 -6 -9 -48 -125 -96 -257 -47 -132
-101 -282 -120 -333 -19 -51 -32 -98 -28 -103 3 -6 22 -8 43 -4 23 4 42 1 53
-7 17 -12 15 -20 -22 -130 -22 -65 -58 -153 -80 -197 -22 -45 -40 -83 -40 -86
0 -3 561 -4 1248 -3 l1247 3 0 35 0 35 -327 3 c-181 1 -328 5 -328 8 0 4 14
36 31 73 90 191 120 248 138 265 19 17 21 17 78 -25 32 -23 95 -78 140 -121
85 -80 110 -91 146 -64 17 13 16 17 -13 65 -16 29 -30 54 -30 56 0 2 -39 64
-87 137 -116 178 -145 229 -140 242 3 7 56 38 118 70 134 69 140 73 128 104
-11 29 -32 28 -144 -3 -136 -38 -132 -39 -137 50 -3 66 -7 78 -31 102 -24 25
-35 28 -93 28 -65 0 -67 -1 -100 -40 -19 -21 -37 -50 -41 -63 -8 -32 28 -106
62 -128 14 -9 24 -21 23 -25 -4 -12 -297 -189 -312 -189 -6 0 -57 39 -114 86
l-101 86 21 29 c12 16 23 29 25 29 1 0 17 -9 35 -20 38 -23 67 -25 91 -7 15
11 15 15 -9 44 -15 20 -37 35 -57 38 -27 5 -37 15 -55 56 -13 27 -34 57 -48
65 -37 25 -96 21 -147 -9 -39 -23 -46 -25 -63 -12 -40 30 -110 9 -102 -31 2
-12 18 -24 43 -32 47 -15 84 -47 70 -61 -7 -6 -59 13 -145 54 -74 36 -140 65
-146 65 -14 0 -36 -48 -28 -61 3 -5 68 -51 145 -101 76 -50 139 -94 138 -97 0
-3 -65 -60 -145 -125 -79 -65 -144 -123 -144 -127 0 -4 10 -11 23 -15 12 -4
32 -14 45 -22 l22 -14 -29 -52 c-15 -28 -45 -82 -66 -121 -21 -38 -44 -79 -51
-90 -8 -11 -14 -27 -14 -36 0 -21 37 -31 61 -18 14 7 170 194 225 267 7 10
128 -44 140 -63 28 -42 50 -245 28 -252 -13 -4 -32 43 -59 140 -14 51 -49 106
-61 94 -2 -2 -9 -50 -14 -108 -6 -59 -15 -108 -22 -114 -15 -12 -345 -5 -365
8 -9 6 -5 17 12 44 33 48 31 77 -14 216 l-39 118 24 10 c14 5 31 9 37 9 40 1
39 15 -6 156 -142 435 -153 474 -140 474 22 0 73 -29 147 -83 75 -56 98 -56
104 0 3 24 -6 37 -50 78 -93 85 -228 219 -228 226 0 5 15 15 34 24 19 9 42 25
52 36 18 20 18 21 -3 37 -27 22 -39 47 -47 100 -3 24 -14 55 -23 68 -35 54
-121 70 -180 34z m1060 -1035 c53 -31 109 -58 124 -61 20 -4 65 10 156 46 70
29 130 50 133 47 3 -3 -13 -94 -36 -204 -23 -109 -48 -233 -57 -275 -10 -51
-21 -78 -29 -78 -9 0 -14 12 -14 35 0 35 -25 167 -58 310 -14 58 -23 79 -33
76 -36 -11 -90 -1 -131 23 -52 30 -63 32 -54 9 8 -19 126 -441 126 -448 0 -3
-54 -5 -120 -5 l-120 0 0 83 c0 93 9 111 48 96 13 -5 26 -8 28 -6 4 3 -18 112
-65 325 -14 61 -15 82 -6 82 7 0 55 -25 108 -55z m-924 -169 c18 -19 161 -332
161 -352 0 -2 -117 -4 -260 -4 -143 0 -260 4 -260 9 0 8 92 207 144 311 21 43
24 45 77 51 105 11 114 10 138 -15z"/>
<path d="M2492 6130 c-77 -47 -95 -142 -41 -224 18 -26 28 -51 23 -55 -5 -5
-105 -73 -222 -151 l-214 -144 24 -18 c32 -25 69 -22 157 9 61 22 94 27 166
28 109 0 157 -21 199 -87 22 -35 111 -108 131 -108 3 0 4 24 1 53 -17 174 -17
187 -6 187 17 0 67 -36 127 -92 28 -26 56 -48 61 -48 5 0 18 12 27 28 10 15
29 39 42 53 l25 27 -44 40 c-24 23 -85 73 -136 112 -50 39 -98 81 -107 93 -19
27 -19 64 0 97 8 14 14 48 15 77 0 57 -27 101 -81 128 -40 21 -108 19 -147 -5z"/>
<path d="M6492 5113 c3 -453 4 -469 24 -513 12 -25 30 -53 41 -62 67 -60 230
-65 248 -7 3 10 1 36 -6 59 -12 38 -14 40 -54 40 -31 0 -47 6 -65 25 l-23 24
-1 448 -2 448 -83 3 -82 3 3 -468z"/>
<path d="M8078 5428 c-3 -147 -4 -153 -23 -150 -85 14 -197 13 -247 -2 -106
-30 -188 -119 -224 -242 -23 -82 -16 -258 15 -337 30 -77 101 -148 178 -178
116 -45 399 -33 447 20 15 16 16 69 14 527 l-3 509 -77 3 -77 3 -3 -153z m-48
-283 c16 -9 32 -25 35 -38 3 -12 7 -116 8 -231 3 -237 2 -242 -71 -256 -96
-17 -195 34 -241 125 -23 43 -26 61 -25 145 1 104 16 150 70 203 59 60 163 84
224 52z"/>
<path d="M5285 5503 c-154 -47 -229 -196 -181 -357 28 -93 92 -149 223 -196
155 -55 223 -103 240 -168 9 -39 -24 -92 -77 -122 -40 -22 -57 -25 -140 -25
-77 1 -110 6 -174 28 -43 15 -81 26 -83 23 -3 -2 -7 -31 -10 -64 l-6 -60 41
-21 c98 -50 281 -66 390 -35 157 45 225 130 226 283 1 139 -70 219 -254 285
-165 59 -227 114 -216 191 14 108 182 148 346 82 35 -15 68 -23 72 -19 4 4 10
33 14 64 6 53 5 57 -20 73 -78 51 -284 71 -391 38z"/>
<path d="M3710 5005 l0 -495 318 2 317 3 3 39 c2 22 1 50 -2 62 l-6 24 -228 2
-227 3 -3 163 -2 163 202 -1 203 -2 0 69 0 68 -190 2 c-104 1 -196 3 -203 3
-10 0 -12 29 -10 128 l3 127 233 3 233 2 -3 63 -3 62 -317 3 -318 2 0 -495z"/>
<path d="M6005 5293 c-57 -9 -189 -43 -198 -52 -4 -4 -3 -20 3 -35 5 -15 10
-38 10 -52 0 -34 18 -38 88 -20 33 9 94 19 135 22 65 6 81 4 120 -15 28 -14
49 -32 57 -50 13 -33 16 -109 4 -121 -5 -5 -67 -10 -139 -13 -71 -2 -146 -9
-166 -16 -95 -30 -140 -91 -147 -199 -11 -166 97 -252 314 -252 84 0 277 28
302 44 16 10 16 505 1 577 -16 75 -81 139 -166 162 -66 19 -169 28 -218 20z
m233 -544 c3 -133 -4 -142 -111 -147 -60 -3 -80 1 -117 20 -116 59 -95 201 33
227 67 14 113 17 157 11 l35 -5 3 -106z"/>
<path d="M4602 5275 c-105 -33 -162 -106 -162 -210 0 -89 37 -157 105 -193 17
-8 69 -25 117 -37 101 -26 147 -50 168 -88 13 -24 13 -30 0 -54 -8 -15 -30
-35 -47 -46 -45 -26 -165 -25 -258 2 -38 12 -72 17 -76 13 -4 -4 -11 -30 -14
-58 -6 -46 -5 -52 16 -66 48 -30 165 -51 262 -45 200 11 287 85 287 242 0 54
-29 129 -58 152 -36 29 -81 47 -182 75 -119 33 -150 55 -150 105 0 89 129 118
281 63 l51 -19 14 34 c19 46 18 79 -3 98 -47 42 -258 61 -351 32z"/>
<path d="M2592 5260 c8 -19 102 -91 117 -88 20 4 26 49 11 78 -9 17 -20 20
-71 19 -33 -1 -58 -5 -57 -9z"/>
<path d="M6827 5103 c-8 -225 3 -416 27 -466 27 -54 89 -103 164 -128 85 -28
241 -29 355 -1 127 32 118 -2 115 406 l-3 351 -77 3 -78 3 0 -300 c0 -332 3
-318 -67 -347 -64 -27 -147 -12 -208 38 -67 56 -69 64 -73 351 l-4 257 -73 0
-72 0 -6 -167z"/>
<path d="M4464 4067 c-2 -7 -3 -94 -2 -192 l3 -180 28 -3 27 -3 0 195 0 196
-25 0 c-14 0 -28 -6 -31 -13z"/>
<path d="M6715 4068 c-3 -8 -4 -95 -3 -193 l3 -180 30 0 30 0 0 190 0 190 -28
3 c-16 2 -29 -2 -32 -10z"/>
<path d="M3831 4051 c-16 -28 9 -56 42 -47 20 5 27 13 27 30 0 37 -52 50 -69
17z"/>
<path d="M5662 4061 c-8 -4 -12 -19 -10 -32 4 -33 52 -39 68 -9 19 36 -21 65
-58 41z"/>
<path d="M2615 4048 c-3 -8 -4 -90 -3 -183 l3 -170 30 0 30 0 3 78 3 77 69 0
69 0 3 -77 3 -78 30 0 30 0 0 180 0 180 -30 0 -30 0 -3 -72 -3 -73 -69 0 -69
0 -3 73 c-3 70 -4 72 -31 75 -16 2 -29 -2 -32 -10z"/>
<path d="M4747 4053 c-4 -3 -7 -87 -7 -185 l0 -178 30 0 30 0 0 151 0 152 66
-134 c75 -153 87 -169 124 -169 47 0 51 14 48 196 l-3 169 -30 0 -30 0 0 -128
c0 -70 -2 -127 -5 -127 -3 0 -33 54 -65 121 -33 66 -68 125 -77 130 -19 10
-72 12 -81 2z"/>
<path d="M3987 4024 c-4 -4 -7 -20 -7 -35 0 -19 -6 -28 -21 -32 -27 -7 -23
-51 6 -55 18 -2 20 -9 17 -64 -5 -81 11 -136 44 -148 36 -14 60 -12 78 6 26
25 19 42 -16 46 l-33 3 -3 77 -3 77 33 3 c28 2 33 7 33 28 0 21 -5 26 -32 28
-28 3 -32 7 -35 35 -2 26 -8 33 -28 35 -14 2 -29 0 -33 -4z"/>
<path d="M3033 3955 c-46 -20 -73 -69 -73 -133 0 -67 22 -110 65 -128 101 -42
195 20 195 129 0 69 -22 115 -64 132 -44 18 -81 18 -123 0z m101 -61 c22 -21
21 -111 -1 -136 -16 -18 -48 -23 -77 -12 -37 14 -40 133 -4 156 21 13 66 9 82
-8z"/>
<path d="M3320 3957 c-13 -7 -31 -24 -39 -39 -24 -42 -6 -78 57 -111 42 -23
53 -33 50 -50 -4 -26 -44 -34 -89 -18 -29 10 -30 9 -27 -17 3 -23 9 -28 49
-36 38 -7 54 -5 85 10 76 37 69 110 -13 149 -59 28 -69 40 -53 60 14 17 53 20
81 5 16 -9 19 -7 19 15 0 40 -67 59 -120 32z"/>
<path d="M3606 3945 c-34 -23 -36 -23 -36 -5 0 15 -7 20 -25 20 l-25 0 0 -191
0 -190 28 3 c26 3 27 6 30 66 2 34 4 62 6 62 2 0 17 -7 35 -16 63 -31 122 5
140 88 18 77 -8 161 -55 178 -39 15 -58 12 -98 -15z m72 -47 c28 -35 21 -130
-11 -150 -64 -41 -120 80 -65 139 24 25 60 30 76 11z"/>
<path d="M4220 3963 c-35 -7 -50 -22 -50 -50 0 -21 3 -23 23 -16 12 4 42 8 67
8 38 0 45 -3 48 -21 3 -19 -3 -22 -50 -27 -67 -8 -102 -40 -101 -92 2 -70 77
-108 133 -66 35 25 40 26 40 6 0 -9 9 -15 25 -15 l25 0 0 109 c0 100 -2 112
-22 136 -24 26 -85 39 -138 28z m90 -182 c0 -36 -20 -53 -57 -49 -20 2 -29 9
-31 26 -5 33 15 52 54 52 31 0 34 -3 34 -29z"/>
<path d="M5185 3966 c-5 -3 -22 -7 -37 -10 -23 -5 -28 -12 -28 -37 0 -27 2
-30 23 -22 12 4 42 8 67 8 38 0 45 -3 48 -21 3 -19 -3 -22 -50 -27 -67 -8
-102 -40 -101 -92 2 -70 77 -108 133 -66 35 25 40 26 40 6 0 -9 9 -15 25 -15
l25 0 0 109 c0 100 -2 112 -23 136 -17 20 -34 28 -67 31 -25 2 -49 2 -55 0z
m75 -185 c0 -36 -20 -53 -57 -49 -20 2 -29 9 -31 26 -5 33 15 52 54 52 31 0
34 -3 34 -29z"/>
<path d="M5463 3956 c-17 -8 -37 -25 -44 -38 -34 -63 -26 -168 16 -208 57 -53
186 -18 161 45 -6 16 -8 17 -24 1 -23 -20 -75 -21 -92 -1 -21 25 -24 89 -6
123 19 36 56 43 94 16 21 -15 22 -14 22 14 0 16 -6 35 -14 41 -23 19 -78 22
-113 7z"/>
<path d="M5851 3953 c-66 -33 -91 -151 -46 -219 39 -59 147 -69 199 -17 48 47
57 143 19 201 -17 27 -70 52 -110 52 -15 0 -43 -8 -62 -17z m115 -68 c12 -18
15 -39 12 -70 -7 -57 -22 -75 -64 -75 -42 0 -64 30 -64 85 0 56 22 85 65 85
26 0 39 -6 51 -25z"/>
<path d="M6230 3963 c-8 -3 -25 -14 -36 -25 -21 -19 -21 -19 -27 2 -4 16 -12
21 -29 18 -23 -3 -23 -5 -23 -133 0 -129 0 -130 24 -133 33 -5 40 11 39 100
-1 87 15 118 58 118 33 0 38 -14 44 -120 5 -91 6 -95 29 -98 33 -5 41 12 41
98 0 82 -13 142 -34 159 -16 14 -66 22 -86 14z"/>
<path d="M6452 3955 c-26 -11 -33 -20 -30 -37 2 -14 9 -22 18 -19 48 12 101
12 115 1 28 -23 17 -37 -36 -42 -68 -7 -103 -34 -107 -82 -7 -79 63 -119 133
-76 29 18 35 19 35 6 0 -10 9 -16 25 -16 l25 0 0 105 c0 57 -5 115 -11 129
-20 44 -103 59 -167 31z m118 -167 c0 -45 -58 -76 -88 -46 -32 32 -5 68 50 68
32 0 38 -3 38 -22z"/>
<path d="M3834 3947 c-2 -7 -3 -67 -2 -133 3 -117 3 -119 27 -122 13 -2 28 2
32 10 10 15 12 218 3 242 -7 19 -53 21 -60 3z"/>
<path d="M5657 3954 c-10 -10 -8 -236 2 -252 4 -8 19 -12 32 -10 24 3 24 4 24
133 l0 130 -25 3 c-14 2 -29 0 -33 -4z"/>
<path d="M1907 3374 c-4 -4 -7 -36 -7 -71 l0 -64 -30 16 c-36 19 -53 19 -90 0
-59 -31 -79 -171 -33 -233 30 -40 82 -50 126 -24 30 17 36 18 41 6 4 -9 15
-14 28 -12 23 3 23 3 23 193 l0 190 -25 3 c-14 2 -29 0 -33 -4z m-22 -184 c23
-26 22 -106 -2 -132 -20 -22 -56 -23 -77 -2 -21 20 -21 102 0 132 19 28 55 28
79 2z"/>
<path d="M2977 3374 c-4 -4 -7 -36 -7 -71 l0 -64 -30 16 c-38 20 -58 19 -96
-4 -40 -24 -58 -75 -52 -148 8 -99 78 -148 151 -105 30 17 36 18 41 6 4 -9 15
-14 28 -12 23 3 23 3 23 193 l0 190 -25 3 c-14 2 -29 0 -33 -4z m-25 -181 c24
-22 25 -109 1 -135 -22 -24 -69 -24 -83 1 -16 31 -12 117 6 135 20 21 53 20
76 -1z"/>
<path d="M4175 3368 c-3 -8 -4 -95 -3 -193 l3 -180 28 -3 c19 -2 27 1 27 12 0
21 5 20 40 -6 41 -30 95 -17 128 32 21 31 23 44 20 109 -3 68 -6 75 -36 102
-36 32 -63 36 -106 14 -15 -8 -30 -15 -32 -15 -2 0 -4 30 -6 68 -3 65 -4 67
-31 70 -16 2 -29 -2 -32 -10z m173 -202 c10 -32 10 -47 0 -80 -15 -47 -44 -58
-84 -32 -20 14 -24 24 -24 66 0 60 26 93 68 88 21 -2 30 -11 40 -42z"/>
<path d="M5055 3368 c-3 -8 -4 -95 -3 -193 l3 -180 30 0 30 0 0 190 0 190 -28
3 c-16 2 -29 -2 -32 -10z"/>
<path d="M5199 3354 c-17 -21 0 -49 31 -49 31 0 48 28 31 49 -8 9 -21 16 -31
16 -10 0 -23 -7 -31 -16z"/>
<path d="M5829 3354 c-17 -21 0 -49 31 -49 31 0 48 28 31 49 -8 9 -21 16 -31
16 -10 0 -23 -7 -31 -16z"/>
<path d="M7314 3356 c-12 -31 0 -51 31 -51 27 0 30 3 30 30 0 25 -4 30 -28 33
-17 2 -29 -2 -33 -12z"/>
<path d="M1466 3344 c-9 -24 -7 -327 2 -342 6 -9 35 -12 108 -10 98 3 99 3 99
28 0 24 -3 25 -72 28 l-73 3 0 49 0 50 59 0 c43 0 60 4 65 15 12 33 -4 45 -65
45 l-59 0 0 45 0 45 69 0 c71 0 88 10 75 45 -9 23 -199 22 -208 -1z"/>
<path d="M3570 3174 l0 -185 33 3 32 3 3 73 c3 68 4 72 26 72 28 0 46 -21 71
-80 10 -25 23 -51 28 -57 11 -16 67 -17 67 -2 0 20 -43 114 -63 136 l-20 22
32 26 c26 22 31 34 31 69 0 79 -44 106 -172 106 l-68 0 0 -186z m158 114 c7
-7 12 -24 12 -40 0 -32 -24 -48 -69 -48 -30 0 -31 1 -31 50 l0 50 38 0 c21 0
43 -5 50 -12z"/>
<path d="M6117 3353 c-4 -3 -7 -87 -7 -185 l0 -179 28 3 27 3 5 155 5 155 43
-125 c60 -177 67 -190 97 -190 30 0 37 14 101 195 l39 110 5 -150 5 -150 30 0
30 0 3 169 c2 116 -1 173 -9 182 -15 18 -83 18 -98 1 -6 -8 -29 -63 -52 -123
-22 -60 -44 -113 -48 -117 -4 -4 -27 46 -50 113 -27 75 -50 124 -61 130 -21
11 -83 13 -93 3z"/>
<path d="M5640 3296 c0 -29 -4 -36 -19 -36 -10 0 -21 -7 -25 -15 -8 -23 4 -45
25 -45 17 0 19 -8 19 -86 0 -47 5 -94 10 -104 22 -41 120 -33 120 10 0 14 -8
20 -32 22 l-33 3 -3 77 -3 77 33 3 c28 2 33 7 33 28 0 21 -5 26 -32 28 -28 3
-32 7 -35 35 -2 27 -8 33 -30 35 -26 3 -28 1 -28 -32z"/>
<path d="M7127 3324 c-4 -4 -7 -20 -7 -35 0 -18 -6 -28 -20 -32 -12 -3 -20
-14 -20 -27 0 -13 8 -24 20 -27 18 -5 20 -14 20 -82 0 -42 6 -87 13 -101 25
-49 117 -54 117 -5 0 18 -6 24 -27 27 -28 3 -28 4 -31 81 l-3 77 31 0 c27 0
30 3 30 30 0 27 -3 30 -29 30 -26 0 -30 4 -33 33 -2 26 -8 33 -28 35 -14 2
-29 0 -33 -4z"/>
<path d="M2100 3263 c-38 -14 -60 -47 -60 -89 0 -24 4 -46 10 -49 6 -4 3 -16
-7 -32 -14 -20 -15 -30 -5 -55 9 -24 8 -33 -3 -45 -23 -22 -19 -70 8 -87 54
-36 164 -28 202 14 24 27 23 76 -2 102 -15 15 -38 22 -87 25 -53 5 -66 9 -66
23 0 13 10 16 51 16 44 -1 54 3 76 28 17 20 24 38 21 57 -3 20 0 29 14 32 20
6 25 46 6 51 -25 8 -143 14 -158 9z m68 -55 c30 -30 3 -82 -40 -76 -29 4 -47
50 -28 72 15 19 51 21 68 4z m16 -214 c20 -8 21 -38 2 -53 -20 -17 -87 -10
-99 11 -22 35 42 63 97 42z"/>
<path d="M2350 3257 c-27 -9 -35 -17 -35 -37 0 -17 5 -24 15 -21 49 12 101 12
115 1 24 -20 18 -40 -12 -40 -48 0 -102 -20 -118 -43 -21 -30 -19 -83 5 -107
32 -32 69 -36 112 -12 30 16 38 17 38 6 0 -8 10 -14 25 -14 l25 0 0 111 c0 61
-4 119 -10 129 -19 36 -95 49 -160 27z m110 -169 c0 -45 -58 -76 -88 -46 -29
29 2 68 54 68 28 0 34 -4 34 -22z"/>
<path d="M2686 3246 c-23 -26 -24 -26 -29 -5 -4 15 -12 20 -29 17 -23 -3 -23
-5 -23 -133 l0 -130 30 0 30 0 3 85 c3 95 17 120 64 120 27 0 29 3 26 33 -4
43 -38 49 -72 13z"/>
<path d="M3172 3255 c-66 -29 -92 -152 -47 -221 39 -59 147 -69 199 -17 47 47
56 142 19 201 -29 47 -109 64 -171 37z m114 -70 c12 -18 15 -39 12 -70 -7 -57
-22 -75 -64 -75 -42 0 -64 30 -64 85 0 56 22 85 65 85 26 0 39 -6 51 -25z"/>
<path d="M3945 3260 c-46 -18 -69 -58 -73 -124 -7 -113 46 -166 152 -151 60 8
76 19 76 52 0 20 -3 24 -17 17 -31 -13 -100 -16 -121 -5 -11 6 -22 22 -24 35
-5 25 -5 25 81 28 l86 3 3 32 c8 82 -84 146 -163 113z m89 -62 c9 -12 16 -26
16 -30 0 -5 -27 -8 -60 -8 -52 0 -59 2 -53 18 17 48 70 59 97 20z"/>
<path d="M4523 3259 c-28 -8 -33 -14 -33 -40 0 -26 3 -30 18 -23 9 4 40 8 67
9 43 0 50 -3 53 -21 3 -18 -3 -22 -49 -27 -64 -8 -95 -28 -104 -65 -14 -64 37
-119 99 -108 19 4 40 13 46 21 11 13 14 13 24 -1 7 -9 21 -14 32 -12 17 3 19
13 19 115 0 100 -2 115 -21 133 -24 24 -103 34 -151 19z m107 -179 c0 -51 -81
-72 -88 -22 -5 33 15 52 54 52 31 0 34 -3 34 -30z"/>
<path d="M4830 3263 c-38 -14 -60 -47 -60 -89 0 -24 4 -46 10 -49 6 -4 3 -16
-7 -32 -13 -20 -14 -31 -6 -52 7 -21 7 -32 -3 -46 -52 -71 41 -136 152 -106
51 14 75 39 76 81 2 50 -28 71 -106 77 -53 5 -66 9 -66 23 0 13 10 16 51 16
44 -1 54 3 76 28 17 20 24 38 21 57 -3 20 0 29 14 32 20 6 25 46 6 51 -25 8
-143 14 -158 9z m68 -55 c30 -30 3 -83 -39 -76 -32 5 -45 31 -31 62 13 28 49
35 70 14z m16 -214 c20 -8 21 -38 2 -53 -20 -17 -87 -10 -99 11 -22 35 42 63
97 42z"/>
<path d="M5386 3262 c-33 -8 -52 -32 -43 -56 5 -13 11 -14 32 -6 15 6 42 10
61 10 27 0 37 -5 43 -22 8 -22 5 -23 -42 -30 -67 -8 -94 -25 -107 -63 -27 -81
63 -146 130 -96 35 25 40 26 40 5 0 -10 7 -14 23 -12 21 3 22 8 25 110 2 99 1
108 -21 133 -24 29 -84 40 -141 27z m96 -182 c-5 -37 -23 -52 -59 -48 -20 2
-29 9 -31 26 -5 34 15 52 57 52 36 0 37 -1 33 -30z"/>
<path d="M6650 3257 c-27 -9 -35 -17 -35 -37 0 -17 5 -24 15 -21 49 12 101 12
115 1 24 -20 18 -40 -12 -40 -82 0 -133 -37 -133 -95 0 -71 70 -105 135 -65
29 18 35 19 35 6 0 -10 9 -16 25 -16 l25 0 0 111 c0 61 -4 119 -10 129 -19 36
-95 49 -160 27z m110 -169 c0 -45 -58 -76 -88 -46 -29 29 2 68 54 68 28 0 34
-4 34 -22z"/>
<path d="M6986 3246 c-23 -26 -24 -26 -29 -5 -4 15 -12 20 -29 17 -23 -3 -23
-5 -23 -133 l0 -130 30 0 30 0 3 85 c3 95 17 120 64 120 27 0 29 3 26 33 -4
43 -38 49 -72 13z"/>
<path d="M7546 3245 c-34 -23 -36 -23 -36 -5 0 15 -7 20 -25 20 l-25 0 0 -135
0 -135 30 0 30 0 0 94 c0 87 2 96 22 110 34 24 67 20 78 -10 6 -14 10 -63 10
-110 l0 -84 30 0 30 0 0 105 c0 114 -9 147 -47 164 -36 16 -56 14 -97 -14z"/>
<path d="M7802 3256 c-72 -33 -59 -120 21 -151 49 -18 64 -39 46 -61 -14 -17
-62 -18 -90 -4 -15 9 -21 7 -26 -5 -11 -30 23 -50 83 -50 49 0 59 4 80 28 46
53 30 102 -46 137 -40 19 -50 28 -48 44 4 25 46 33 78 16 16 -9 22 -8 27 5 15
40 -67 66 -125 41z"/>
<path d="M5200 3126 l0 -136 30 0 31 0 -3 133 -3 132 -27 3 -28 3 0 -135z"/>
<path d="M5830 3126 l0 -136 30 0 31 0 -3 133 -3 132 -27 3 -28 3 0 -135z"/>
<path d="M7315 3248 c-3 -8 -4 -68 -3 -134 l3 -119 30 0 30 0 0 130 0 130 -28
3 c-16 2 -29 -2 -32 -10z"/>
</g>
</svg>
