<?xml version="1.0" standalone="no"?>
<!DOCTYPE svg PUBLIC "-//W3C//DTD SVG 20010904//EN"
 "http://www.w3.org/TR/2001/REC-SVG-20010904/DTD/svg10.dtd">
<svg version="1.0" xmlns="http://www.w3.org/2000/svg"
 width="252.000000pt" height="48.000000pt" viewBox="0 0 252.000000 48.000000"
 preserveAspectRatio="xMidYMid meet">

<g transform="translate(0.000000,48.000000) scale(0.100000,-0.100000)"
fill="#000000" stroke="none">
<path d="M272 464 c-41 -28 -19 -94 32 -94 30 0 46 18 46 51 0 24 -30 59 -50
59 -3 0 -16 -7 -28 -16z"/>
<path d="M547 393 c-4 -3 -7 -33 -7 -65 0 -45 3 -58 15 -58 12 0 15 14 15 65
0 60 -6 75 -23 58z"/>
<path d="M607 393 c-4 -3 -7 -33 -7 -65 0 -45 3 -58 15 -58 11 0 15 11 15 43
l0 42 26 -42 c37 -62 54 -57 54 16 0 69 -17 92 -22 29 l-3 -42 -28 42 c-27 41
-37 49 -50 35z"/>
<path d="M758 389 c-28 -16 -22 -47 12 -64 17 -9 30 -20 30 -25 0 -6 -13 -10
-30 -10 -33 0 -41 -15 -11 -23 25 -6 65 14 69 36 2 11 -8 24 -27 35 -35 19
-35 38 -2 34 15 -1 21 3 19 10 -6 17 -38 21 -60 7z"/>
<path d="M845 389 c-4 -6 2 -13 14 -16 18 -4 21 -13 21 -54 0 -37 4 -49 15
-49 11 0 15 12 15 50 0 38 4 50 15 50 8 0 15 7 15 15 0 11 -12 15 -44 15 -25
0 -48 -5 -51 -11z"/>
<path d="M970 335 c0 -37 4 -65 10 -65 6 0 10 28 10 65 0 37 -4 65 -10 65 -6
0 -10 -28 -10 -65z"/>
<path d="M1020 385 c0 -8 7 -15 15 -15 11 0 15 -12 15 -50 0 -38 4 -50 15 -50
11 0 15 12 15 49 0 41 3 50 21 54 35 9 11 27 -37 27 -32 0 -44 -4 -44 -15z"/>
<path d="M1140 346 c0 -47 3 -58 24 -71 23 -16 54 -11 68 9 11 17 9 116 -2
116 -5 0 -10 -18 -10 -39 0 -52 -8 -71 -31 -71 -15 0 -18 9 -21 52 -4 74 -28
77 -28 4z"/>
<path d="M1270 385 c0 -8 7 -15 15 -15 11 0 15 -12 15 -50 0 -38 4 -50 15 -50
11 0 15 12 15 50 0 38 4 50 15 50 8 0 15 7 15 15 0 11 -12 15 -45 15 -33 0
-45 -4 -45 -15z"/>
<path d="M1402 384 c-19 -13 -22 -24 -20 -57 2 -34 8 -44 30 -55 29 -13 63 -4
80 22 14 21 8 66 -12 86 -24 24 -48 25 -78 4z m57 -18 c7 -8 11 -27 9 -43 -2
-22 -8 -28 -28 -28 -20 0 -26 6 -28 28 -3 27 12 57 28 57 4 0 13 -6 19 -14z"/>
<path d="M1577 394 c-4 -4 -7 -34 -7 -66 0 -45 3 -58 15 -58 11 0 15 12 16 43
l0 42 22 -42 c13 -27 28 -43 39 -43 17 0 19 7 16 63 -3 67 -21 81 -26 20 l-3
-37 -22 39 c-22 39 -38 51 -50 39z"/>
<path d="M1734 364 c-22 -52 -29 -94 -15 -94 6 0 14 7 17 15 4 8 14 15 24 15
10 0 20 -7 24 -15 3 -8 12 -15 20 -15 12 0 11 8 -3 53 -28 89 -43 99 -67 41z
m36 -24 c0 -11 -4 -20 -10 -20 -5 0 -10 9 -10 20 0 11 5 20 10 20 6 0 10 -9
10 -20z"/>
<path d="M1863 385 c-26 -18 -37 -59 -23 -86 13 -23 53 -41 75 -33 23 9 18 24
-8 24 -47 0 -63 47 -26 74 12 8 28 12 35 9 8 -3 14 1 14 11 0 20 -38 21 -67 1z"/>
<path d="M1966 393 c-3 -3 -6 -33 -6 -65 0 -45 3 -58 15 -58 12 0 15 13 15 59
0 56 -9 79 -24 64z"/>
<path d="M2042 384 c-25 -17 -31 -84 -9 -102 30 -24 56 -23 82 2 30 30 32 69
5 96 -24 24 -48 25 -78 4z m61 -26 c15 -23 0 -68 -23 -68 -36 0 -48 60 -16 82
14 10 27 5 39 -14z"/>
<path d="M2170 336 c0 -73 17 -91 22 -23 l3 42 23 -42 c34 -65 52 -57 52 22 0
71 -17 90 -22 24 l-3 -42 -25 38 c-39 61 -50 57 -50 -19z"/>
<path d="M2337 393 c-5 -7 -37 -113 -37 -120 0 -2 7 -3 15 -3 8 0 15 7 15 15
0 8 9 15 20 15 11 0 23 -7 26 -15 4 -8 12 -15 20 -15 15 0 13 20 -11 90 -11
33 -37 51 -48 33z m33 -65 c0 -5 -7 -8 -15 -8 -15 0 -20 21 -8 33 7 7 23 -11
23 -25z"/>
<path d="M2440 336 l0 -66 40 0 c22 0 40 5 40 10 0 6 -11 10 -24 10 -23 0 -25
4 -28 52 -2 30 -8 53 -15 56 -10 3 -13 -14 -13 -62z"/>
<path d="M350 368 c0 -7 7 -21 15 -31 7 -11 16 -36 20 -57 8 -48 -21 -121 -59
-145 -30 -20 -34 -45 -7 -45 54 0 118 110 107 187 -8 59 -32 103 -56 103 -11
0 -20 -6 -20 -12z"/>
<path d="M222 338 c-24 -38 -23 -41 12 -32 20 5 24 9 16 19 -8 9 -8 15 0 20
12 8 13 25 1 25 -5 0 -18 -15 -29 -32z"/>
<path d="M245 281 c3 -5 -8 -31 -25 -57 -16 -26 -31 -44 -31 -38 -1 5 -2 15
-3 23 -1 13 -46 50 -46 38 0 -4 10 -16 23 -27 16 -16 17 -19 5 -15 -24 9 -23
0 3 -26 18 -18 20 -29 15 -65 -6 -43 -5 -44 24 -44 35 0 39 16 10 53 -21 27
-25 43 -12 49 14 6 52 66 52 82 0 9 8 16 18 16 14 0 15 2 2 10 -19 12 -43 13
-35 1z"/>
<path d="M271 244 c0 -11 3 -14 6 -6 3 7 2 16 -1 19 -3 4 -6 -2 -5 -13z"/>
<path d="M544 196 c-3 -7 -4 -35 -2 -62 3 -47 4 -49 35 -52 24 -2 39 3 58 22
30 30 32 59 5 86 -23 23 -88 28 -96 6z m74 -18 c17 -17 15 -44 -4 -62 -29 -30
-44 -20 -44 29 0 37 3 45 18 45 10 0 23 -5 30 -12z"/>
<path d="M690 145 l0 -65 40 0 c45 0 55 17 13 22 -34 4 -38 32 -5 36 30 5 28
22 -3 22 -16 0 -25 6 -25 15 0 9 9 15 25 15 14 0 25 5 25 10 0 6 -16 10 -35
10 l-35 0 0 -65z"/>
<path d="M840 190 c-8 -15 -6 -24 9 -39 10 -10 24 -20 32 -23 20 -7 -1 -30
-22 -25 -12 3 -19 0 -19 -9 0 -9 11 -14 28 -14 57 0 71 50 22 75 -32 17 -32
35 1 35 10 0 19 5 19 10 0 19 -59 11 -70 -10z"/>
<path d="M977 203 c-3 -5 -10 -27 -17 -51 -6 -24 -14 -50 -17 -58 -3 -8 1 -14
11 -14 9 0 16 7 16 15 0 28 31 30 51 4 28 -37 34 -15 14 51 -13 44 -23 60 -36
60 -10 0 -20 -3 -22 -7z m33 -55 c0 -5 -6 -8 -14 -8 -9 0 -12 7 -9 21 4 16 8
17 14 7 5 -7 9 -16 9 -20z"/>
<path d="M1080 145 l0 -65 40 0 c22 0 40 5 40 10 0 6 -11 10 -25 10 -24 0 -25
3 -25 55 0 42 -3 55 -15 55 -12 0 -15 -14 -15 -65z"/>
<path d="M1180 161 c0 -55 17 -81 54 -81 13 0 29 7 36 15 16 20 18 107 3 112
-9 3 -13 -8 -13 -39 0 -51 -12 -73 -34 -65 -12 5 -16 20 -16 57 0 38 -4 50
-15 50 -11 0 -15 -12 -15 -49z"/>
<path d="M1320 145 l0 -65 35 0 c43 0 75 29 75 68 0 38 -28 62 -73 62 l-37 0
0 -65z m78 12 c4 -31 -12 -57 -34 -57 -10 0 -14 14 -14 46 0 41 2 45 23 42 16
-2 23 -11 25 -31z"/>
<path d="M263 188 c-11 -18 -10 -32 1 -40 14 -10 26 0 26 22 0 24 -16 34 -27
18z"/>
<path d="M165 140 c-3 -5 -1 -10 4 -10 6 0 11 5 11 10 0 6 -2 10 -4 10 -3 0
-8 -4 -11 -10z"/>
<path d="M55 100 c3 -5 11 -10 16 -10 6 0 7 5 4 10 -3 6 -11 10 -16 10 -6 0
-7 -4 -4 -10z"/>
<path d="M260 80 c0 -5 7 -10 16 -10 8 0 12 5 9 10 -3 6 -10 10 -16 10 -5 0
-9 -4 -9 -10z"/>
</g>
</svg>
