<?xml version="1.0" standalone="no"?>
<!DOCTYPE svg PUBLIC "-//W3C//DTD SVG 20010904//EN"
 "http://www.w3.org/TR/2001/REC-SVG-20010904/DTD/svg10.dtd">
<svg version="1.0" xmlns="http://www.w3.org/2000/svg"
 width="207.000000pt" height="63.000000pt" viewBox="0 0 207.000000 63.000000"
 preserveAspectRatio="xMidYMid meet">

<g transform="translate(0.000000,63.000000) scale(0.100000,-0.100000)"
fill="#000000" stroke="none">
<path d="M212 485 c0 -20 -3 -39 -6 -42 -3 -4 -6 8 -6 25 0 42 -20 41 -21 0 0
-28 -2 -30 -9 -13 -8 19 -9 19 -9 -2 -1 -12 4 -25 11 -29 8 -5 6 -10 -8 -15
-17 -7 -17 -8 -1 -8 9 -1 17 -5 17 -11 0 -5 8 -10 18 -10 13 0 10 -5 -12 -23
-32 -26 -30 -61 5 -72 25 -8 25 -37 -1 -53 -11 -7 -20 -22 -20 -33 0 -12 8
-23 20 -26 16 -4 20 -14 20 -44 0 -22 5 -39 10 -39 6 0 10 9 10 20 0 11 5 20
10 20 6 0 10 9 10 19 0 11 -4 23 -10 26 -17 11 -11 44 10 55 24 13 26 42 5 60
-18 15 -21 55 -3 44 7 -4 26 -9 43 -10 16 -2 23 0 15 3 -8 3 -19 12 -23 20 -5
8 -18 18 -30 23 -18 7 -18 9 -4 9 9 1 17 6 17 11 0 6 7 10 15 10 8 0 12 6 9
14 -3 8 -1 17 5 21 6 3 11 11 11 16 0 6 -4 7 -10 4 -6 -3 -7 1 -4 9 8 21 -5
20 -23 -1 -11 -14 -14 -14 -10 -3 3 9 -1 24 -9 35 -10 14 -14 15 -14 4 -1 -10
-4 -10 -14 4 -13 16 -14 15 -14 -18z m-6 -172 c-10 -10 -19 5 -10 18 6 11 8
11 12 0 2 -7 1 -15 -2 -18z"/>
<path d="M405 390 c-3 -5 -1 -10 4 -10 6 0 11 5 11 10 0 6 -2 10 -4 10 -3 0
-8 -4 -11 -10z"/>
<path d="M395 340 c-3 -5 1 -10 9 -10 9 0 16 5 16 10 0 6 -4 10 -9 10 -6 0
-13 -4 -16 -10z"/>
<path d="M390 282 c0 -12 19 -26 26 -19 2 2 -2 10 -11 17 -9 8 -15 8 -15 2z"/>
<path d="M390 240 c-13 -8 -12 -10 3 -10 9 0 17 5 17 10 0 12 -1 12 -20 0z"/>
<path d="M350 170 c0 -5 5 -10 11 -10 5 0 7 5 4 10 -3 6 -8 10 -11 10 -2 0 -4
-4 -4 -10z"/>
<path d="M105 129 c-4 -6 -5 -12 -2 -15 2 -3 7 2 10 11 7 17 1 20 -8 4z"/>
<path d="M307 99 c7 -7 15 -10 18 -7 3 3 -2 9 -12 12 -14 6 -15 5 -6 -5z"/>
<path d="M130 90 c0 -5 7 -10 15 -10 8 0 15 5 15 10 0 6 -7 10 -15 10 -8 0
-15 -4 -15 -10z"/>
<path d="M267 79 c7 -7 15 -10 18 -7 3 3 -2 9 -12 12 -14 6 -15 5 -6 -5z"/>
</g>
</svg>
