<?xml version="1.0" encoding="UTF-8" standalone="no"?>
<svg
   xmlns:dc="http://purl.org/dc/elements/1.1/"
   xmlns:cc="http://creativecommons.org/ns#"
   xmlns:rdf="http://www.w3.org/1999/02/22-rdf-syntax-ns#"
   xmlns:svg="http://www.w3.org/2000/svg"
   xmlns="http://www.w3.org/2000/svg"
   xmlns:sodipodi="http://sodipodi.sourceforge.net/DTD/sodipodi-0.dtd"
   xmlns:inkscape="http://www.inkscape.org/namespaces/inkscape"
   viewBox="0 0 96.43001 97.68001"
   version="1.1"
   id="svg46"
   sodipodi:docname="zeiss-logo.svg"
   inkscape:version="0.92.4 (5da689c313, 2019-01-14)"
   inkscape:export-filename="G:\Users\suitedoalex\sites\svg\zeiss-logo-0.png"
   inkscape:export-xdpi="4077.7349"
   inkscape:export-ydpi="4077.7349">
  <metadata
     id="metadata50">
    <rdf:RDF>
      <cc:Work
         rdf:about="">
        <dc:format>image/svg+xml</dc:format>
        <dc:type
           rdf:resource="http://purl.org/dc/dcmitype/StillImage" />
        <dc:title>zeiss-logo</dc:title>
      </cc:Work>
    </rdf:RDF>
  </metadata>
  <sodipodi:namedview
     pagecolor="#ffffff"
     bordercolor="#666666"
     borderopacity="1"
     objecttolerance="10"
     gridtolerance="10"
     guidetolerance="10"
     inkscape:pageopacity="0"
     inkscape:pageshadow="2"
     inkscape:window-width="1600"
     inkscape:window-height="837"
     id="namedview48"
     showgrid="false"
     inkscape:zoom="2.4160522"
     inkscape:cx="48.358807"
     inkscape:cy="48.74226"
     inkscape:window-x="-8"
     inkscape:window-y="-8"
     inkscape:window-maximized="1"
     inkscape:current-layer="Ebene_1-2" />
  <defs
     id="defs4">
    <style
       id="style2">.cls-1{fill:#141e8c;}.cls-2{fill:#fff;}</style>
  </defs>
  <title
     id="title6">zeiss-logo</title>
  <g
     id="Ebene_2"
     data-name="Ebene 2">
    <g
       id="Ebene_1-2"
       data-name="Ebene 1">
      <path
         class="cls-1"
         d="m 193.72814,66.239492 a 78.35838,78.35838 0 0 0 -64.17,0 V 2.0694917 h 64.17 z"
         id="path8"
         inkscape:connector-curvature="0"
         style="fill:#141e8c"
         inkscape:export-xdpi="696.8786"
         inkscape:export-ydpi="696.8786" />
      <path
         class="cls-2"
         d="m 137.16814,21.649492 a 3.28735,3.28735 0 0 0 -3.26,3.06 h -1.44 v -4.53 h 11.23 c 0,0 0.09,3.5 -3.23,7.21 0,0 -3.16,3.67 -3.24,5.28 h 1.82 c 2.61,0 2.88,-3.06 2.88,-3.06 h 1.5 v 4.54 h -11.48 c 0,0 -0.42,-3.44 3.56,-7.61 0,0 2.45,-2.74 3.02,-4.9 z"
         id="path10"
         inkscape:connector-curvature="0"
         style="fill:#ffffff"
         inkscape:export-xdpi="696.8786"
         inkscape:export-ydpi="696.8786" />
      <path
         class="cls-2"
         d="m 165.76814,34.139492 v -1.48 h -0.34 a 1.11816,1.11816 0 0 1 -1.12,-1.12 v -8.76 a 1.11816,1.11816 0 0 1 1.12,-1.12 h 0.34 v -1.48 h -7.45 v 1.48 h 0.34 a 1.12036,1.12036 0 0 1 1.13,1.12 v 8.76 a 1.12036,1.12036 0 0 1 -1.13,1.12 h -0.34 v 1.48 z"
         id="path12"
         inkscape:connector-curvature="0"
         style="fill:#ffffff"
         inkscape:export-xdpi="696.8786"
         inkscape:export-ydpi="696.8786" />
      <path
         class="cls-2"
         d="m 156.77814,34.149492 v -4.54 h -1.5 c 0,0 -0.28,3.06 -2.89,3.06 h -1.5 v -4.76 h 0.53 a 1.12251,1.12251 0 0 1 1.13,1.13 v 0.56 h 1.48 v -4.89 h -1.48 v 0.57 a 1.12251,1.12251 0 0 1 -1.13,1.13 h -0.53 v -4.76 h 1.5 c 2.61,0 2.89,3.06 2.89,3.06 h 1.5 v -4.54 h -11.83 v 1.49 h 0.34 a 1.11816,1.11816 0 0 1 1.12,1.12 v 8.76 a 1.11816,1.11816 0 0 1 -1.12,1.12 h -0.34 v 1.48 z"
         id="path14"
         inkscape:connector-curvature="0"
         style="fill:#ffffff"
         inkscape:export-xdpi="696.8786"
         inkscape:export-ydpi="696.8786" />
      <path
         class="cls-2"
         d="m 173.58814,21.649492 a 3.26451,3.26451 0 0 1 3.25,3.06 h 1.45 v -4.53 h -10.73 c 0,0 -1.7,2.22 2.74,7.21 0,0 3.15,3.67 3.23,5.28 h -1.81 c -2.61,0 -2.89,-3.06 -2.89,-3.06 h -1.51 v 4.54 h 10.82 c 0,0 1.97,-2.12 -2.9,-7.61 0,0 -2.55,-2.62 -3.02,-4.9 z"
         id="path16"
         inkscape:connector-curvature="0"
         style="fill:#ffffff"
         inkscape:export-xdpi="696.8786"
         inkscape:export-ydpi="696.8786" />
      <path
         class="cls-2"
         d="m 186.13814,21.649492 a 3.2743,3.2743 0 0 1 3.25,3.06 h 1.44 v -4.53 h -10.72 c 0,0 -1.7,2.22 2.74,7.21 0,0 3.15,3.67 3.23,5.28 h -1.81 c -2.61,0 -2.89,-3.06 -2.89,-3.06 h -1.5 v 4.54 h 10.82 c 0,0 1.96,-2.12 -2.9,-7.61 0,0 -2.55,-2.62 -3.01,-4.9 z"
         id="path18"
         inkscape:connector-curvature="0"
         style="fill:#ffffff"
         inkscape:export-xdpi="696.8786"
         inkscape:export-ydpi="696.8786" />
      <path
         d="m 113.46814,94.529492 a 4.71764,4.71764 0 0 0 1.15,0.45 5.34747,5.34747 0 0 0 1.24,0.14 2.743,2.743 0 0 0 0.7,-0.09 1.65862,1.65862 0 0 0 0.61,-0.3 1.41774,1.41774 0 0 0 0.43,-0.53 1.74041,1.74041 0 0 0 0.16,-0.79 1.40563,1.40563 0 0 0 -0.14,-0.64 1.91713,1.91713 0 0 0 -0.37,-0.49 2.49594,2.49594 0 0 0 -0.54,-0.39 c -0.21,-0.11 -0.43,-0.23 -0.65,-0.34 l -0.77,-0.39 a 5.11064,5.11064 0 0 1 -0.68,-0.41 2.3623,2.3623 0 0 1 -0.56,-0.53 2.61291,2.61291 0 0 1 -0.38,-0.7 3.09931,3.09931 0 0 1 0.15,-2.23 2.57452,2.57452 0 0 1 0.76,-0.9 3.2047,3.2047 0 0 1 1.05,-0.51 4.21417,4.21417 0 0 1 1.16,-0.16 7.25958,7.25958 0 0 1 2.24,0.33 l -0.09,1.37 a 4.32949,4.32949 0 0 0 -1.02,-0.32 5.48122,5.48122 0 0 0 -1.05,-0.1 2.71941,2.71941 0 0 0 -0.63,0.08 1.64449,1.64449 0 0 0 -0.57,0.26 1.36839,1.36839 0 0 0 -0.42,0.47 1.42148,1.42148 0 0 0 -0.16,0.72 1.36309,1.36309 0 0 0 0.11,0.56 1.40071,1.40071 0 0 0 0.3,0.42 2.17758,2.17758 0 0 0 0.45,0.33 c 0.17,0.1 0.34,0.19 0.52,0.29 l 0.82,0.39 a 8.87988,8.87988 0 0 1 0.82,0.46 3.0113,3.0113 0 0 1 0.66,0.57 2.50722,2.50722 0 0 1 0.45,0.76 2.95308,2.95308 0 0 1 0.16,1.04 3.18844,3.18844 0 0 1 -0.27,1.37 2.695,2.695 0 0 1 -0.73,0.96 3.13182,3.13182 0 0 1 -1.09,0.56 4.81958,4.81958 0 0 1 -1.34,0.19 7.849,7.849 0 0 1 -1.24,-0.1 7.47648,7.47648 0 0 1 -1.3,-0.32 z"
         id="path20"
         inkscape:connector-curvature="0"
         inkscape:export-xdpi="696.8786"
         inkscape:export-ydpi="696.8786" />
      <path
         d="m 122.45814,92.679492 a 3.11382,3.11382 0 0 0 0.16,1.02 2.27852,2.27852 0 0 0 1.25,1.4 2.6014,2.6014 0 0 0 1.08,0.21 4.59119,4.59119 0 0 0 1.03,-0.12 3.8788,3.8788 0 0 0 0.97,-0.36 l 0.09,1.15 a 4.9878,4.9878 0 0 1 -1.1,0.32 6.78043,6.78043 0 0 1 -1.2,0.1 4.45595,4.45595 0 0 1 -1.65,-0.29 3.29581,3.29581 0 0 1 -1.19,-0.84 3.53582,3.53582 0 0 1 -0.72,-1.29 5.41122,5.41122 0 0 1 -0.24,-1.66 5.08475,5.08475 0 0 1 0.23,-1.52 3.904,3.904 0 0 1 0.67,-1.28 3.26111,3.26111 0 0 1 1.07,-0.88 3.04494,3.04494 0 0 1 1.43,-0.33 3.26356,3.26356 0 0 1 1.47,0.3 2.57679,2.57679 0 0 1 0.96,0.83 3.46346,3.46346 0 0 1 0.52,1.24 7.50288,7.50288 0 0 1 0.16,1.54 v 0.47 h -4.99 z m 3.55,-0.96 a 4.90935,4.90935 0 0 0 -0.07,-0.86 2.37073,2.37073 0 0 0 -0.26,-0.75 1.49282,1.49282 0 0 0 -0.5,-0.53 1.55515,1.55515 0 0 0 -0.82,-0.2 1.53854,1.53854 0 0 0 -0.82,0.21 2.02624,2.02624 0 0 0 -0.59,0.54 2.3697,2.3697 0 0 0 -0.36,0.75 3.49394,3.49394 0 0 0 -0.13,0.84 z"
         id="path22"
         inkscape:connector-curvature="0"
         inkscape:export-xdpi="696.8786"
         inkscape:export-ydpi="696.8786" />
      <path
         d="m 130.35814,92.679492 a 3.11408,3.11408 0 0 0 0.16,1.02 2.2786,2.2786 0 0 0 1.25,1.4 2.6014,2.6014 0 0 0 1.08,0.21 4.59119,4.59119 0 0 0 1.03,-0.12 3.73818,3.73818 0 0 0 0.97,-0.36 l 0.09,1.15 a 4.9878,4.9878 0 0 1 -1.1,0.32 6.78043,6.78043 0 0 1 -1.2,0.1 4.45595,4.45595 0 0 1 -1.65,-0.29 3.29581,3.29581 0 0 1 -1.19,-0.84 3.53582,3.53582 0 0 1 -0.72,-1.29 5.41122,5.41122 0 0 1 -0.24,-1.66 5.08475,5.08475 0 0 1 0.23,-1.52 3.90415,3.90415 0 0 1 0.67,-1.28 3.26131,3.26131 0 0 1 1.07,-0.88 3.045,3.045 0 0 1 1.43,-0.33 3.2636,3.2636 0 0 1 1.47,0.3 2.57685,2.57685 0 0 1 0.96,0.83 3.4631,3.4631 0 0 1 0.52,1.24 7.50288,7.50288 0 0 1 0.16,1.54 v 0.47 h -4.99 z m 3.54,-0.96 a 4.90935,4.90935 0 0 0 -0.07,-0.86 2.371,2.371 0 0 0 -0.26,-0.75 1.49282,1.49282 0 0 0 -0.5,-0.53 1.55512,1.55512 0 0 0 -0.82,-0.2 1.53854,1.53854 0 0 0 -0.82,0.21 2.02624,2.02624 0 0 0 -0.59,0.54 2.3697,2.3697 0 0 0 -0.36,0.75 3.49394,3.49394 0 0 0 -0.13,0.84 z"
         id="path24"
         inkscape:connector-curvature="0"
         inkscape:export-xdpi="696.8786"
         inkscape:export-ydpi="696.8786" />
      <path
         d="m 137.14814,86.859492 v -1.51 h 1.48 v 1.51 z m 0,9.36 v -7.76 h 1.48 v 7.77 h -1.48 z"
         id="path26"
         inkscape:connector-curvature="0"
         inkscape:export-xdpi="696.8786"
         inkscape:export-ydpi="696.8786" />
      <path
         d="m 140.87814,96.219492 v -5.98 c 0,-0.3 -0.01,-0.6 -0.02,-0.89 -0.01,-0.29 -0.03,-0.59 -0.06,-0.89 h 1.39 l 0.04,1.34 a 2.54368,2.54368 0 0 1 2.4,-1.49 2.72946,2.72946 0 0 1 1.16,0.22 1.95683,1.95683 0 0 1 0.77,0.61 2.63941,2.63941 0 0 1 0.42,0.96 5.2172,5.2172 0 0 1 0.13,1.23 v 4.91 h -1.5 v -4.58 a 6.83735,6.83735 0 0 0 -0.05,-0.79 1.75349,1.75349 0 0 0 -0.21,-0.68 1.17044,1.17044 0 0 0 -0.44,-0.47 1.425,1.425 0 0 0 -0.76,-0.18 1.56158,1.56158 0 0 0 -0.87,0.22 1.69629,1.69629 0 0 0 -0.56,0.57 2.4938,2.4938 0 0 0 -0.3,0.79 4.53013,4.53013 0 0 0 -0.09,0.91 v 4.22 h -1.45 z"
         id="path28"
         inkscape:connector-curvature="0"
         inkscape:export-xdpi="696.8786"
         inkscape:export-ydpi="696.8786" />
      <path
         d="m 149.64814,98.009492 a 4.66444,4.66444 0 0 0 1.06,0.41 4.4819,4.4819 0 0 0 1.15,0.15 2.84218,2.84218 0 0 0 1.1,-0.2 1.887,1.887 0 0 0 0.76,-0.57 2.26479,2.26479 0 0 0 0.43,-0.88 4.43892,4.43892 0 0 0 0.13,-1.13 v -0.92 a 2.4615,2.4615 0 0 1 -0.97,1 2.85128,2.85128 0 0 1 -2.72,0.01 2.93172,2.93172 0 0 1 -0.93,-0.89 3.89889,3.89889 0 0 1 -0.53,-1.25 6.20834,6.20834 0 0 1 -0.16,-1.43 6.69607,6.69607 0 0 1 0.16,-1.5 3.97183,3.97183 0 0 1 0.53,-1.28 2.854,2.854 0 0 1 0.94,-0.89 2.76242,2.76242 0 0 1 1.4,-0.33 2.71035,2.71035 0 0 1 1.37,0.35 2.43371,2.43371 0 0 1 0.96,1.1 v -1.3 h 1.42 v 7.33 a 4.34388,4.34388 0 0 1 -0.9,2.94 3.51474,3.51474 0 0 1 -2.77,1.02 7.68543,7.68543 0 0 1 -1.27,-0.11 9.12987,9.12987 0 0 1 -1.25,-0.31 z m 1.29,-3.87 a 1.92194,1.92194 0 0 0 0.56,0.64 1.75085,1.75085 0 0 0 1.82,-0.01 2.04439,2.04439 0 0 0 0.59,-0.65 3.00662,3.00662 0 0 0 0.32,-0.87 4.9742,4.9742 0 0 0 0.1,-0.92 5.3628,5.3628 0 0 0 -0.09,-0.96 3.121,3.121 0 0 0 -0.31,-0.92 1.85744,1.85744 0 0 0 -0.59,-0.68 1.45346,1.45346 0 0 0 -0.9,-0.26 1.585,1.585 0 0 0 -0.94,0.26 1.77657,1.77657 0 0 0 -0.57,0.67 2.912,2.912 0 0 0 -0.28,0.92 6.78163,6.78163 0 0 0 -0.07,0.99 6.04341,6.04341 0 0 0 0.08,0.93 2.63214,2.63214 0 0 0 0.28,0.86 z"
         id="path30"
         inkscape:connector-curvature="0"
         inkscape:export-xdpi="696.8786"
         inkscape:export-ydpi="696.8786" />
      <path
         d="m 162.69814,96.219492 v -11.2 h 1.48 v 4.72 a 2.10067,2.10067 0 0 1 0.92,-1.07 2.64176,2.64176 0 0 1 1.35,-0.37 2.81432,2.81432 0 0 1 1.42,0.33 2.67379,2.67379 0 0 1 0.94,0.89 3.74817,3.74817 0 0 1 0.52,1.28 7.33427,7.33427 0 0 1 0.16,1.5 6.84945,6.84945 0 0 1 -0.16,1.51 4.085,4.085 0 0 1 -0.53,1.3 2.88014,2.88014 0 0 1 -0.95,0.92 2.7418,2.7418 0 0 1 -1.42,0.35 2.61906,2.61906 0 0 1 -1.37,-0.36 2.54274,2.54274 0 0 1 -0.96,-1.1 l -0.03,1.29 h -1.37 z m 1.84,-2 a 2.10277,2.10277 0 0 0 0.59,0.7 1.40219,1.40219 0 0 0 0.9,0.28 1.52941,1.52941 0 0 0 0.93,-0.27 1.92278,1.92278 0 0 0 0.57,-0.69 3.37268,3.37268 0 0 0 0.29,-0.93 6.82532,6.82532 0 0 0 0.08,-0.99 6.55375,6.55375 0 0 0 -0.07,-0.98 3.018,3.018 0 0 0 -0.28,-0.91 1.93292,1.93292 0 0 0 -0.56,-0.67 1.574,1.574 0 0 0 -0.93,-0.26 1.52042,1.52042 0 0 0 -0.9,0.26 1.95446,1.95446 0 0 0 -0.59,0.68 2.97768,2.97768 0 0 0 -0.32,0.91 5.40022,5.40022 0 0 0 -0.1,0.96 5.559,5.559 0 0 0 0.09,0.97 3.23324,3.23324 0 0 0 0.3,0.94 z"
         id="path32"
         inkscape:connector-curvature="0"
         inkscape:export-xdpi="696.8786"
         inkscape:export-ydpi="696.8786" />
      <path
         d="m 172.47814,92.679492 a 3.11408,3.11408 0 0 0 0.16,1.02 2.2786,2.2786 0 0 0 1.25,1.4 2.60144,2.60144 0 0 0 1.08,0.21 4.5911,4.5911 0 0 0 1.03,-0.12 3.73838,3.73838 0 0 0 0.97,-0.36 l 0.09,1.15 a 4.9878,4.9878 0 0 1 -1.1,0.32 6.7804,6.7804 0 0 1 -1.2,0.1 4.456,4.456 0 0 1 -1.65,-0.29 3.10216,3.10216 0 0 1 -1.19,-0.84 3.53582,3.53582 0 0 1 -0.72,-1.29 5.41122,5.41122 0 0 1 -0.24,-1.66 5.08443,5.08443 0 0 1 0.23,-1.52 3.904,3.904 0 0 1 0.67,-1.28 3.26131,3.26131 0 0 1 1.07,-0.88 3.045,3.045 0 0 1 1.43,-0.33 3.2636,3.2636 0 0 1 1.47,0.3 2.57685,2.57685 0 0 1 0.96,0.83 3.46328,3.46328 0 0 1 0.52,1.24 7.50287,7.50287 0 0 1 0.16,1.54 v 0.47 h -4.99 z m 3.55,-0.96 a 4.90935,4.90935 0 0 0 -0.07,-0.86 2.371,2.371 0 0 0 -0.26,-0.75 1.49282,1.49282 0 0 0 -0.5,-0.53 1.5551,1.5551 0 0 0 -0.82,-0.2 1.53857,1.53857 0 0 0 -0.82,0.21 2.02608,2.02608 0 0 0 -0.59,0.54 2.36949,2.36949 0 0 0 -0.36,0.75 3.49344,3.49344 0 0 0 -0.13,0.84 z"
         id="path34"
         inkscape:connector-curvature="0"
         inkscape:export-xdpi="696.8786"
         inkscape:export-ydpi="696.8786" />
      <path
         d="m 178.64814,98.439492 a 2.58249,2.58249 0 0 0 0.73,0.11 0.9809,0.9809 0 0 0 0.85,-0.39 3.99472,3.99472 0 0 0 0.53,-1.18 l 0.15,-0.48 -2.66,-8.04 h 1.62 l 1.81,6.38 1.78,-6.38 h 1.51 l -2.83,8.81 c -0.1,0.3 -0.21,0.6 -0.34,0.89 a 4.20537,4.20537 0 0 1 -0.47,0.8 2.10946,2.10946 0 0 1 -0.69,0.57 2.01282,2.01282 0 0 1 -0.99,0.22 4.91937,4.91937 0 0 1 -1.08,-0.11 z"
         id="path36"
         inkscape:connector-curvature="0"
         inkscape:export-xdpi="696.8786"
         inkscape:export-ydpi="696.8786" />
      <path
         d="m 187.79814,96.099492 a 3.23207,3.23207 0 0 1 -1.55,-1.46 5.2999,5.2999 0 0 1 -0.27,-3.95 3.87516,3.87516 0 0 1 0.73,-1.27 3.27038,3.27038 0 0 1 1.15,-0.82 3.66746,3.66746 0 0 1 1.51,-0.3 4.05339,4.05339 0 0 1 1.56,0.29 3.15886,3.15886 0 0 1 1.15,0.81 3.33549,3.33549 0 0 1 0.7,1.27 5.391,5.391 0 0 1 0.24,1.65 5.30643,5.30643 0 0 1 -0.24,1.63 3.78612,3.78612 0 0 1 -0.7,1.3 3.14051,3.14051 0 0 1 -1.15,0.85 3.84184,3.84184 0 0 1 -1.56,0.3 3.99461,3.99461 0 0 1 -1.57,-0.3 z m -0.01,-1.8 a 2.12411,2.12411 0 0 0 0.64,0.66 1.84731,1.84731 0 0 0 1.89,0 2.124,2.124 0 0 0 0.64,-0.66 2.9954,2.9954 0 0 0 0.36,-0.92 5.37094,5.37094 0 0 0 0.11,-1.06 5.03882,5.03882 0 0 0 -0.1,-1.02 2.98125,2.98125 0 0 0 -0.35,-0.92 1.8688,1.8688 0 0 0 -0.63,-0.65 1.716,1.716 0 0 0 -0.96,-0.25 1.68179,1.68179 0 0 0 -0.95,0.25 1.98909,1.98909 0 0 0 -0.63,0.66 3.26932,3.26932 0 0 0 -0.36,0.92 5.05377,5.05377 0 0 0 -0.11,1.02 5.34976,5.34976 0 0 0 0.11,1.05 2.90558,2.90558 0 0 0 0.34,0.92 z"
         id="path38"
         inkscape:connector-curvature="0"
         inkscape:export-xdpi="696.8786"
         inkscape:export-ydpi="696.8786" />
      <path
         d="m 194.85814,96.219492 v -5.98 c 0,-0.3 0,-0.6 -0.01,-0.89 -0.01,-0.29 -0.03,-0.59 -0.06,-0.89 h 1.39 l 0.04,1.34 a 2.54369,2.54369 0 0 1 2.4,-1.49 2.72946,2.72946 0 0 1 1.16,0.22 1.95683,1.95683 0 0 1 0.77,0.61 2.63941,2.63941 0 0 1 0.42,0.96 5.21775,5.21775 0 0 1 0.13,1.23 v 4.91 h -1.5 v -4.58 a 6.83512,6.83512 0 0 0 -0.05,-0.79 1.75349,1.75349 0 0 0 -0.21,-0.68 1.13029,1.13029 0 0 0 -0.45,-0.47 1.42508,1.42508 0 0 0 -0.76,-0.18 1.5616,1.5616 0 0 0 -0.87,0.22 1.69629,1.69629 0 0 0 -0.56,0.57 2.494,2.494 0 0 0 -0.3,0.79 4.53013,4.53013 0 0 0 -0.09,0.91 v 4.22 h -1.45 z"
         id="path40"
         inkscape:connector-curvature="0"
         inkscape:export-xdpi="696.8786"
         inkscape:export-ydpi="696.8786" />
      <path
         d="m 208.45814,96.219492 -0.09,-1.29 a 2.35369,2.35369 0 0 1 -0.95,1.1 2.68067,2.68067 0 0 1 -1.38,0.36 2.71656,2.71656 0 0 1 -1.42,-0.35 2.88014,2.88014 0 0 1 -0.95,-0.92 3.75067,3.75067 0 0 1 -0.53,-1.3 6.8493,6.8493 0 0 1 -0.16,-1.51 6.69594,6.69594 0 0 1 0.16,-1.5 3.97164,3.97164 0 0 1 0.53,-1.28 2.79147,2.79147 0 0 1 0.95,-0.89 2.84044,2.84044 0 0 1 1.42,-0.33 2.58061,2.58061 0 0 1 1.34,0.37 2.17124,2.17124 0 0 1 0.91,1.07 v -4.72 h 1.48 v 8.87 c 0,0.43 0.01,0.84 0.02,1.22 0.01,0.38 0.03,0.75 0.05,1.11 h -1.38 z m -3.52,-1.98 a 1.92268,1.92268 0 0 0 0.57,0.69 1.509,1.509 0 0 0 0.93,0.27 1.40218,1.40218 0 0 0 0.9,-0.28 2.22649,2.22649 0 0 0 0.59,-0.7 3.1207,3.1207 0 0 0 0.31,-0.92 5.55894,5.55894 0 0 0 0.09,-0.97 4.60764,4.60764 0 0 0 -0.1,-0.96 3.1365,3.1365 0 0 0 -0.32,-0.92 1.85749,1.85749 0 0 0 -0.59,-0.68 1.45346,1.45346 0 0 0 -0.9,-0.26 1.53177,1.53177 0 0 0 -0.93,0.26 1.66917,1.66917 0 0 0 -0.56,0.67 2.91184,2.91184 0 0 0 -0.28,0.92 6.57175,6.57175 0 0 0 0.01,1.98 3.13993,3.13993 0 0 0 0.28,0.9 z"
         id="path42"
         inkscape:connector-curvature="0"
         inkscape:export-xdpi="696.8786"
         inkscape:export-ydpi="696.8786" />
      <path
         class="cls-1"
         d="m 77.816614,78.441614 a 72.293414,72.293414 0 0 0 -59.20322,0 v -59.20322 h 59.20322 z"
         id="path8-9"
         inkscape:connector-curvature="0"
         style="fill:#141e8c;stroke-width:0.92259967"
         inkscape:export-xdpi="1135.0735"
         inkscape:export-ydpi="1135.0735" />
      <path
         class="cls-2"
         d="m 25.634377,37.302895 a 3.032908,3.032908 0 0 0 -3.007674,2.823155 h -1.328544 v -4.179376 h 10.360794 c 0,0 0.08303,3.229099 -2.979997,6.651943 0,0 -2.915415,3.385941 -2.989223,4.871326 h 1.679132 c 2.407985,0 2.657087,-2.823154 2.657087,-2.823154 h 1.383899 v 4.188602 H 20.818407 c 0,0 -0.387492,-3.173743 3.284455,-7.020983 0,0 2.260369,-2.527923 2.786251,-4.520739 z"
         id="path10-5"
         inkscape:connector-curvature="0"
         style="fill:#ffffff;stroke-width:0.92259967"
         inkscape:export-xdpi="1135.0735"
         inkscape:export-ydpi="1135.0735" />
      <path
         class="cls-2"
         d="m 52.020728,48.826165 v -1.365448 h -0.313684 a 1.031614,1.031614 0 0 1 -1.033312,-1.033311 v -8.081973 a 1.031614,1.031614 0 0 1 1.033312,-1.033312 h 0.313684 V 35.946674 H 45.14736 v 1.365447 h 0.313684 a 1.0336438,1.0336438 0 0 1 1.042538,1.033312 v 8.081973 a 1.0336438,1.0336438 0 0 1 -1.042538,1.033311 H 45.14736 v 1.365448 z"
         id="path12-8"
         inkscape:connector-curvature="0"
         style="fill:#ffffff;stroke-width:0.92259967"
         inkscape:export-xdpi="1135.0735"
         inkscape:export-ydpi="1135.0735" />
      <path
         class="cls-2"
         d="m 43.726557,48.835391 v -4.188602 h -1.3839 c 0,0 -0.258328,2.823154 -2.666313,2.823154 h -1.383899 v -4.391574 h 0.488977 a 1.0356273,1.0356273 0 0 1 1.042538,1.042538 v 0.516656 h 1.365448 V 40.12605 H 39.82396 v 0.525882 a 1.0356273,1.0356273 0 0 1 -1.042538,1.042538 h -0.488977 v -4.391575 h 1.383899 c 2.407985,0 2.666313,2.823155 2.666313,2.823155 h 1.3839 V 35.937448 H 32.812203 v 1.374673 h 0.313684 a 1.031614,1.031614 0 0 1 1.033311,1.033312 v 8.081973 a 1.031614,1.031614 0 0 1 -1.033311,1.033311 h -0.313684 v 1.365448 z"
         id="path14-6"
         inkscape:connector-curvature="0"
         style="fill:#ffffff;stroke-width:0.92259967"
         inkscape:export-xdpi="1135.0735"
         inkscape:export-ydpi="1135.0735" />
      <path
         class="cls-2"
         d="m 59.235457,37.302895 a 3.0118358,3.0118358 0 0 1 2.998449,2.823155 h 1.337769 v -4.179376 h -9.899494 c 0,0 -1.568419,2.048171 2.527923,6.651943 0,0 2.906189,3.385941 2.979997,4.871326 h -1.669905 c -2.407986,0 -2.666314,-2.823154 -2.666314,-2.823154 h -1.393125 v 4.188602 h 9.982528 c 0,0 1.817522,-1.955911 -2.675539,-7.020983 0,0 -2.352629,-2.417212 -2.786251,-4.520739 z"
         id="path16-3"
         inkscape:connector-curvature="0"
         style="fill:#ffffff;stroke-width:0.92259967"
         inkscape:export-xdpi="1135.0735"
         inkscape:export-ydpi="1135.0735" />
      <path
         class="cls-2"
         d="m 70.814083,37.302895 a 3.0208681,3.0208681 0 0 1 2.998448,2.823155 h 1.328544 v -4.179376 h -9.890268 c 0,0 -1.56842,2.048171 2.527923,6.651943 0,0 2.906189,3.385941 2.979997,4.871326 h -1.669906 c -2.407985,0 -2.666313,-2.823154 -2.666313,-2.823154 h -1.383899 v 4.188602 h 9.982528 c 0,0 1.808295,-1.955911 -2.675539,-7.020983 0,0 -2.352629,-2.417212 -2.777025,-4.520739 z"
         id="path18-8"
         inkscape:connector-curvature="0"
         style="fill:#ffffff;stroke-width:0.92259967"
         inkscape:export-xdpi="1135.0735"
         inkscape:export-ydpi="1135.0735" />
    </g>
  </g>
</svg>
